<?xml version="1.0" encoding="utf-8"?>
<!-- Generator: Adobe Illustrator 25.2.1, SVG Export Plug-In . SVG Version: 6.00 Build 0)  -->
<svg version="1.1" id="Layer_1" xmlns="http://www.w3.org/2000/svg" xmlns:xlink="http://www.w3.org/1999/xlink" x="0px" y="0px"
	 viewBox="0 0 792 163.1" style="enable-background:new 0 0 792 163.1;" xml:space="preserve">
<style type="text/css">
	.st0{fill:#FFFFFF;}
</style>
<g>
	<g>
		<path class="st0" d="M67.2,50.4h-0.2c0-1.1-0.4-2-1.2-2.8c-0.8-0.8-1.7-1.1-2.8-1.1c0,0-0.2,0-0.3,0s-0.3,0-0.4,0l-0.1-0.6h5V50.4
			z M67.2,84.8v4.5h-5l0.1-0.6c0.1,0,0.2,0,0.4,0s0.3,0,0.3,0c1.1,0,2-0.4,2.8-1.1c0.8-0.8,1.2-1.7,1.2-2.8H67.2z M71.1,45.9v43.4
			h-4V45.9H71.1z M74.6,45.9c2.9,0,5.3,0.4,7.3,1.3c2,0.9,3.5,2.1,4.6,3.6c1,1.5,1.6,3.4,1.6,5.4c0,1.7-0.3,3.3-1,4.6
			c-0.7,1.3-1.5,2.4-2.5,3.2c-1,0.8-2.1,1.4-3.3,1.7c2.2,0.3,4.1,1.1,5.7,2.2c1.6,1.1,2.8,2.5,3.7,4.2c0.8,1.7,1.3,3.5,1.3,5.6
			c0,2.3-0.6,4.4-1.7,6.1c-1.1,1.8-2.8,3.1-4.9,4.1c-2.2,1-4.8,1.5-7.8,1.5h-6.9c0-0.7,0.1-1.5,0.1-2.2h6.6c2.1,0,4-0.4,5.5-1.1
			c1.5-0.8,2.6-1.9,3.4-3.4c0.8-1.5,1.2-3.3,1.2-5.3c0-2.3-0.4-4.2-1.3-5.6c-0.9-1.4-2-2.5-3.4-3.3c-1.4-0.7-2.9-1.2-4.6-1.5
			c-1.6-0.3-3.2-0.4-4.7-0.4v-0.6c1,0,2-0.1,3.2-0.3c1.2-0.2,2.3-0.6,3.3-1.2c1.1-0.6,2-1.5,2.7-2.8c0.7-1.2,1.1-2.8,1.1-4.8
			c0-1.9-0.3-3.5-1-4.8c-0.7-1.3-1.7-2.3-3-3c-1.3-0.7-3-1-5-1h-5.7c0,0-0.1-0.2-0.2-0.5c-0.1-0.3-0.3-0.8-0.5-1.5H74.6z"/>
		<path class="st0" d="M102.8,56h-0.1c0-1-0.4-1.7-1.1-2.4c-0.7-0.6-1.5-0.9-2.5-0.9h-0.9v-0.6h5.3L102.8,56z M102.8,85.3l0.7,4
			h-5.3v-0.6h0.9c1,0,1.8-0.3,2.5-1c0.7-0.7,1-1.4,1.1-2.4H102.8z M106.6,52.1v37.2h-4V52.1H106.6z M106.4,85.3h0.2
			c0,0.9,0.4,1.7,1.1,2.4c0.7,0.7,1.5,1,2.5,1h0.8l0.1,0.6h-5.3L106.4,85.3z M113.9,52.1c1.9,0,3.7,0.2,5.2,0.7c1.6,0.5,2.9,1.1,4,2
			c1.1,0.9,1.9,1.9,2.5,3.2c0.6,1.2,0.9,2.6,0.9,4.2c0,1.7-0.4,3.3-1.2,4.8c-0.8,1.5-2,2.7-3.4,3.7c-1.5,1-3.1,1.5-5,1.7
			c0.7,0.3,1.5,0.9,2.4,1.9s1.7,2,2.4,2.9c1.1,1.4,2,2.7,2.9,3.8c0.8,1.1,1.7,2.1,2.5,3c0.9,1,1.7,1.8,2.4,2.5
			c0.7,0.7,1.5,1.2,2.4,1.6c0.8,0.4,1.8,0.6,2.9,0.6v0.6h-1.9c-2.3,0-4.1-0.3-5.6-0.9c-1.5-0.6-2.7-1.3-3.6-2.1
			c-0.9-0.8-1.7-1.7-2.4-2.4c-0.2-0.2-0.5-0.7-1.1-1.6c-0.6-0.8-1.3-1.8-2-2.8c-0.7-1-1.3-1.9-1.9-2.7c-0.6-0.8-0.9-1.3-1.1-1.5
			c-0.8-1.1-1.8-2-2.9-2.9c-1.1-0.8-2.2-1.3-3.4-1.3v-0.6c1.3,0,2.5,0,3.5,0c1.2,0,2.3-0.1,3.5-0.3c1.2-0.1,2.2-0.6,3.3-1.3
			c1-0.7,1.8-2,2.4-3.7c0.2-0.5,0.3-1,0.4-1.6c0.1-0.6,0.1-1.3,0.1-1.9c0-1.2-0.3-2.2-0.7-3.1c-0.4-0.9-1-1.7-1.7-2.4
			c-0.7-0.7-1.6-1.2-2.6-1.5c-1-0.4-2.1-0.6-3.3-0.6c-1.9-0.1-3.6-0.1-5.1-0.1c-1.4,0-2.2,0-2.2,0c0,0-0.1-0.2-0.2-0.5
			c-0.1-0.3-0.3-0.8-0.5-1.4H113.9z"/>
		<path class="st0" d="M142.4,56.1h-0.2c0-1-0.5-1.7-1.3-2.4c-0.8-0.6-1.8-1-2.9-1c0,0-0.3,0-0.9,0v-0.6h5.3V56.1z M142.4,85.3v4
			h-5.3v-0.6h0.9c1.2,0,2.1-0.3,2.9-1c0.8-0.7,1.2-1.4,1.3-2.4H142.4z M146.2,52.1v37.2h-3.9V52.1H146.2z M146,56.1v-4h5.3l-0.1,0.6
			h-0.8c-1.2,0-2.1,0.3-2.9,1c-0.8,0.6-1.2,1.4-1.3,2.4H146z M146,85.3h0.2c0,0.9,0.5,1.7,1.3,2.4c0.8,0.7,1.8,1,2.9,1h0.8l0.1,0.6
			H146V85.3z"/>
		<path class="st0" d="M178,51.2c1.9,0,3.7,0.1,5.4,0.4c1.7,0.3,3.3,0.7,4.8,1.2c1.5,0.6,2.9,1.3,4.3,2.1l1.4,8.7h-0.6
			c-0.6-2.4-1.5-4.4-2.8-6c-1.3-1.6-3-2.7-5.1-3.5c-2.1-0.8-4.5-1.1-7.4-1.1c-3.1,0-5.9,0.7-8.3,2.1c-2.4,1.4-4.2,3.5-5.5,6.1
			c-1.3,2.6-2,5.8-2,9.4c0,3.6,0.7,6.7,2,9.4c1.3,2.6,3.2,4.7,5.6,6.1c2.4,1.4,5.2,2.1,8.3,2.1c1.7,0,3.4-0.2,5-0.6
			c1.6-0.4,3.1-1,4.6-1.8c1.5-0.8,2.8-1.8,4.1-3.1l0.1-8.2c0-0.8-0.2-1.4-0.7-1.8c-0.5-0.4-1.2-0.6-2.1-0.6H188v-0.6h11.3v0.6h-0.9
			c-1.9,0-2.8,0.8-2.8,2.5v7.4c-1,1.2-2.3,2.4-3.9,3.7c-1.7,1.2-3.6,2.3-5.9,3.1c-2.3,0.8-4.9,1.2-7.8,1.2c-4.1,0-7.7-0.8-10.7-2.4
			c-3-1.6-5.4-3.8-7.1-6.7c-1.7-2.9-2.5-6.3-2.5-10.4c0-4.1,0.8-7.5,2.5-10.4c1.7-2.9,4.1-5.1,7.1-6.7C170.4,52,174,51.2,178,51.2z"
			/>
		<path class="st0" d="M208.5,56.1h-0.2c0-1-0.4-1.7-1.1-2.4c-0.7-0.6-1.5-1-2.5-1H204v-0.6h4.5V56.1z M208.5,85.3v4H204v-0.6h0.7
			c1,0,1.8-0.3,2.5-1c0.7-0.7,1-1.4,1.1-2.4H208.5z M212.3,52.1v37.2h-4V52.1H212.3z M235.8,70v1.9h-24.2V70H235.8z M212.1,56.1v-4
			h4.5v0.6h-0.7c-1,0-1.8,0.3-2.5,1c-0.7,0.6-1.1,1.4-1.1,2.4H212.1z M212.1,85.3h0.2c0,0.9,0.4,1.7,1.1,2.4c0.7,0.7,1.5,1,2.5,1
			h0.7v0.6h-4.5V85.3z M235.4,56.1h-0.2c0-1-0.4-1.7-1.1-2.4c-0.7-0.6-1.5-1-2.5-1h-0.7v-0.6h4.5V56.1z M235.4,85.3v4h-4.5v-0.6h0.7
			c1,0,1.8-0.3,2.5-1c0.7-0.7,1-1.4,1.1-2.4H235.4z M239.2,52.1v37.2h-4V52.1H239.2z M239,56.1v-4h4.5v0.6h-0.7c-1,0-1.8,0.3-2.5,1
			c-0.7,0.6-1,1.4-1.1,2.4H239z M239,85.3h0.2c0,0.9,0.4,1.7,1.1,2.4c0.7,0.7,1.5,1,2.5,1h0.7v0.6H239V85.3z"/>
		<path class="st0" d="M247.8,51.1c0.4,0.1,0.9,0.3,1.7,0.4c0.8,0.2,1.6,0.3,2.6,0.4c1,0.1,1.8,0.2,2.7,0.2l-6.9,0.6V51.1z
			 M281.8,52v1.9h-34V52H281.8z M251.6,53.8v0.1c-1,0-1.7,0.4-2.3,1c-0.6,0.6-0.8,1.3-0.8,2.2v1h-0.7v-4.3H251.6z M262.9,85.3v4
			h-4.5v-0.6c0,0,0.3,0,0.7,0c1,0,1.8-0.3,2.5-1c0.7-0.7,1.1-1.4,1.1-2.4H262.9z M266.8,52.3v37h-4v-37H266.8z M266.6,85.3h0.2
			c0,0.9,0.4,1.7,1.1,2.4c0.7,0.7,1.5,1,2.5,1h0.7v0.6h-4.5V85.3z M281.8,51.1v1.6l-6.9-0.6c0.8,0,1.7-0.1,2.6-0.2
			c0.9-0.1,1.8-0.2,2.6-0.4C280.9,51.3,281.4,51.2,281.8,51.1z M281.8,53.8v4.3h-0.7v-1c0-0.9-0.3-1.6-0.8-2.2
			c-0.6-0.6-1.3-0.9-2.3-1v-0.1H281.8z"/>
		<path class="st0" d="M306.9,50.4h-0.2c0-1.1-0.4-2-1.2-2.8c-0.8-0.8-1.7-1.1-2.8-1.1H302l-0.1-0.6h5V50.4z M306.9,84.8v4.5h-5
			v-0.6h0.8c1.1,0,2-0.4,2.8-1.1c0.8-0.8,1.2-1.7,1.2-2.8H306.9z M310.7,45.9v43.4h-4V45.9H310.7z M327.5,45.9v1.9h-16.9v-1.9H327.5
			z M324.8,67v1.9h-14.3V67H324.8z M310.5,84.8h0.2c0,1.1,0.4,2,1.2,2.8c0.8,0.8,1.7,1.1,2.8,1.1c0.5,0,0.8,0,0.8,0v0.6h-5V84.8z
			 M327.5,44.8v1.8l-7.6-0.7c0.9,0,1.9-0.1,2.9-0.2c1-0.1,2-0.3,2.8-0.4C326.5,45.1,327.1,45,327.5,44.8z M324.8,63v4.1h-3.6V67
			c0.8,0,1.5-0.4,2.1-1c0.6-0.6,0.9-1.3,0.9-2.1V63H324.8z M324.8,68.7v4.1h-0.6v-0.9c0-0.8-0.3-1.5-0.9-2.1
			c-0.6-0.6-1.3-0.9-2.1-0.9v-0.1H324.8z M327.5,47.6v4.2h-0.6v-0.9c0-0.8-0.3-1.5-0.9-2.1c-0.6-0.6-1.3-0.9-2.1-0.9v-0.2H327.5z"/>
		<path class="st0" d="M338.2,52.1v3.3h-0.1c0-0.7-0.3-1.4-0.9-1.9c-0.6-0.5-1.3-0.8-2.1-0.8h-0.9v-0.6H338.2z M342.1,52.1v23.4
			c0,4,1,7.2,3.1,9.5c2,2.3,4.8,3.5,8.4,3.5c3.9,0,7-1.1,9.3-3.3c2.3-2.2,3.4-5.2,3.4-9V52.1h2.9v24.1c0,4.3-1.4,7.7-4.1,10.2
			c-2.7,2.5-6.5,3.8-11.3,3.8c-4.8,0-8.5-1.2-11.3-3.7c-2.8-2.5-4.2-5.9-4.2-10.2V52.1H342.1z M346,52.1v0.6h-0.9
			c-0.8,0-1.5,0.3-2.1,0.8c-0.6,0.5-0.9,1.1-0.9,1.9H342v-3.3H346z M366.3,52.1v3.3h-0.1c0-0.7-0.3-1.4-0.9-1.9
			c-0.6-0.5-1.3-0.8-2.1-0.8h-0.9v-0.6H366.3z M373,52.1v0.6H372c-0.8,0-1.5,0.3-2,0.8c-0.6,0.5-0.9,1.1-0.9,1.9h-0.1v-3.3H373z"/>
		<path class="st0" d="M376.1,51.1c0.4,0.1,0.9,0.3,1.7,0.4c0.8,0.2,1.6,0.3,2.6,0.4c1,0.1,1.8,0.2,2.7,0.2l-6.9,0.6V51.1z
			 M410.1,52v1.9h-34V52H410.1z M379.8,53.8v0.1c-1,0-1.7,0.4-2.3,1c-0.6,0.6-0.8,1.3-0.8,2.2v1h-0.7v-4.3H379.8z M391.2,85.3v4
			h-4.5v-0.6c0,0,0.3,0,0.7,0c1,0,1.8-0.3,2.5-1c0.7-0.7,1.1-1.4,1.1-2.4H391.2z M395.1,52.3v37h-4v-37H395.1z M394.9,85.3h0.2
			c0,0.9,0.4,1.7,1.1,2.4c0.7,0.7,1.5,1,2.5,1h0.7v0.6h-4.5V85.3z M410.1,51.1v1.6l-6.9-0.6c0.8,0,1.7-0.1,2.6-0.2
			c0.9-0.1,1.8-0.2,2.6-0.4C409.1,51.3,409.7,51.2,410.1,51.1z M410.1,53.8v4.3h-0.7v-1c0-0.9-0.3-1.6-0.8-2.2
			c-0.6-0.6-1.3-0.9-2.3-1v-0.1H410.1z"/>
		<path class="st0" d="M417.5,52.1v3.3h-0.1c0-0.7-0.3-1.4-0.9-1.9c-0.6-0.5-1.3-0.8-2.1-0.8h-0.9v-0.6H417.5z M421.3,52.1v23.4
			c0,4,1,7.2,3.1,9.5c2,2.3,4.8,3.5,8.4,3.5c3.9,0,7-1.1,9.3-3.3c2.3-2.2,3.4-5.2,3.4-9V52.1h2.9v24.1c0,4.3-1.4,7.7-4.1,10.2
			c-2.7,2.5-6.5,3.8-11.3,3.8c-4.8,0-8.5-1.2-11.3-3.7c-2.8-2.5-4.2-5.9-4.2-10.2V52.1H421.3z M425.2,52.1v0.6h-0.9
			c-0.8,0-1.5,0.3-2.1,0.8c-0.6,0.5-0.9,1.1-0.9,1.9h-0.1v-3.3H425.2z M445.6,52.1v3.3h-0.1c0-0.7-0.3-1.4-0.9-1.9s-1.3-0.8-2.1-0.8
			h-0.9v-0.6H445.6z M452.2,52.1v0.6h-0.9c-0.8,0-1.5,0.3-2,0.8c-0.6,0.5-0.9,1.1-0.9,1.9h-0.1v-3.3H452.2z"/>
		<path class="st0" d="M462.3,56h-0.1c0-1-0.4-1.7-1.1-2.4c-0.7-0.6-1.5-0.9-2.5-0.9h-0.9v-0.6h5.3L462.3,56z M462.3,85.3l0.7,4
			h-5.3v-0.6h0.9c1,0,1.8-0.3,2.5-1c0.7-0.7,1-1.4,1.1-2.4H462.3z M466.1,52.1v37.2h-4V52.1H466.1z M465.9,85.3h0.2
			c0,0.9,0.4,1.7,1.1,2.4c0.7,0.7,1.5,1,2.5,1h0.8l0.1,0.6h-5.3L465.9,85.3z M473.3,52.1c1.9,0,3.7,0.2,5.2,0.7s2.9,1.1,4,2
			c1.1,0.9,1.9,1.9,2.5,3.2c0.6,1.2,0.9,2.6,0.9,4.2c0,1.7-0.4,3.3-1.2,4.8c-0.8,1.5-2,2.7-3.4,3.7c-1.5,1-3.1,1.5-5,1.7
			c0.7,0.3,1.5,0.9,2.4,1.9s1.7,2,2.4,2.9c1.1,1.4,2,2.7,2.9,3.8c0.8,1.1,1.7,2.1,2.5,3c0.9,1,1.7,1.8,2.4,2.5
			c0.7,0.7,1.5,1.2,2.4,1.6c0.8,0.4,1.8,0.6,2.9,0.6v0.6h-1.9c-2.3,0-4.1-0.3-5.6-0.9c-1.5-0.6-2.7-1.3-3.6-2.1
			c-0.9-0.8-1.7-1.7-2.4-2.4c-0.2-0.2-0.5-0.7-1.1-1.6c-0.6-0.8-1.3-1.8-2-2.8c-0.7-1-1.3-1.9-1.9-2.7c-0.6-0.8-0.9-1.3-1.1-1.5
			c-0.8-1.1-1.8-2-2.9-2.9c-1.1-0.8-2.2-1.3-3.4-1.3v-0.6c1.3,0,2.5,0,3.5,0c1.2,0,2.3-0.1,3.5-0.3c1.2-0.1,2.2-0.6,3.3-1.3
			c1-0.7,1.8-2,2.4-3.7c0.2-0.5,0.3-1,0.4-1.6c0.1-0.6,0.1-1.3,0.1-1.9c0-1.2-0.3-2.2-0.7-3.1c-0.4-0.9-1-1.7-1.7-2.4
			c-0.7-0.7-1.6-1.2-2.6-1.5s-2.1-0.6-3.3-0.6c-1.9-0.1-3.6-0.1-5.1-0.1c-1.4,0-2.2,0-2.2,0c0,0-0.1-0.2-0.2-0.5
			c-0.1-0.3-0.3-0.8-0.5-1.4H473.3z"/>
		<path class="st0" d="M501.2,56h-0.1c0-1-0.4-1.7-1.1-2.4c-0.7-0.6-1.5-0.9-2.5-0.9h-0.9v-0.6h5.4L501.2,56z M501.2,85.3l0.8,4
			h-5.4v-0.6h0.9c1,0,1.9-0.3,2.5-1c0.7-0.7,1-1.4,1.1-2.4H501.2z M505.1,52.1v37.2h-4V52.1H505.1z M521.7,52.1V54H505v-1.9H521.7z
			 M518.8,69.8v1.9H505v-1.9H518.8z M521.8,87.4l-0.1,1.9H505v-1.9H521.8z M525.2,80.4l-3.4,8.9h-9.4l2.1-1.9c2.1,0,3.7-0.3,5-0.9
			c1.3-0.6,2.3-1.4,3.1-2.5c0.8-1.1,1.5-2.2,2-3.6H525.2z M521.7,51.1v1.6l-7.1-0.6c1.3,0,2.6-0.1,4.1-0.3
			C520.2,51.5,521.2,51.3,521.7,51.1z M518.8,66.4v3.5h-3.2v-0.1c0.9,0,1.5-0.3,1.9-0.8s0.6-1.1,0.6-1.8v-0.8H518.8z M518.8,71.5V75
			h-0.7v-0.8c0-0.7-0.2-1.3-0.6-1.8s-1.1-0.8-1.9-0.8v-0.1H518.8z M521.7,53.8v4.3H521v-0.9c0-0.9-0.3-1.6-0.8-2.2
			c-0.6-0.6-1.3-0.9-2.3-0.9v-0.2H521.7z"/>
		<path class="st0" d="M541.6,51.2c1.2,0,2.2,0,3,0.1c0.9,0.1,1.6,0.2,2.3,0.3c0.6,0.1,1.2,0.2,1.7,0.4c0.5,0.1,0.9,0.3,1.3,0.4
			l0.1,6.1h-0.7c0-1.7-0.6-3-1.7-4c-1.2-1-3-1.5-5.4-1.5c-2.1,0-3.8,0.6-5.3,1.7c-1.5,1.1-2.2,2.5-2.1,4.2c0,0.5,0.1,1.1,0.2,1.6
			c0.1,0.6,0.4,1.1,0.7,1.6c0.4,0.5,0.8,1.1,1.5,1.6l12.5,9.7c1,0.8,1.7,1.8,2.1,3c0.5,1.2,0.7,2.4,0.7,3.6c0,1.8-0.4,3.5-1.4,5
			s-2.3,2.7-4,3.6s-3.5,1.3-5.5,1.3c-1.2,0-2.5-0.1-3.9-0.3c-1.4-0.2-2.7-0.5-3.9-1c-1.2-0.4-2.2-1-3-1.6c-0.1-0.6-0.2-1.3-0.2-2.2
			c0-0.9,0.1-1.8,0.2-2.8c0.1-1,0.3-1.9,0.6-2.7h0.7c-0.2,1.9,0.1,3.5,0.8,4.8c0.7,1.3,1.7,2.3,3.1,3s3,1,4.8,1c2.6-0.1,4.6-0.7,6-2
			c1.5-1.2,2.2-2.8,2.2-4.9c0-1-0.2-1.9-0.5-2.7c-0.4-0.8-0.9-1.6-1.7-2.3L534.3,67c-1.2-1-1.9-2.1-2.4-3.3
			c-0.4-1.2-0.6-2.3-0.6-3.4c0-1.7,0.5-3.2,1.4-4.6c0.9-1.4,2.1-2.4,3.7-3.3C538,51.6,539.7,51.2,541.6,51.2z M549.8,51.8l0.1,1.1
			h-4.4v-1.1H549.8z"/>
		<path class="st0" d="M579.9,50.4h-0.2c0-1.1-0.4-2-1.2-2.8c-0.8-0.8-1.7-1.1-2.8-1.1H575l-0.1-0.6h5V50.4z M579.9,84.8v4.5h-5
			v-0.6h0.8c1.1,0,2-0.4,2.8-1.1c0.8-0.8,1.2-1.7,1.2-2.8H579.9z M583.8,45.9v43.4h-4V45.9H583.8z M600.5,45.9v1.9h-16.9v-1.9H600.5
			z M597.8,67v1.9h-14.3V67H597.8z M583.6,84.8h0.2c0,1.1,0.4,2,1.2,2.8c0.8,0.8,1.7,1.1,2.8,1.1c0.5,0,0.8,0,0.8,0v0.6h-5V84.8z
			 M600.5,44.8v1.8l-7.6-0.7c0.9,0,1.9-0.1,2.9-0.2c1-0.1,2-0.3,2.8-0.4S600.1,45,600.5,44.8z M597.8,63v4.1h-3.6V67
			c0.8,0,1.5-0.4,2.1-1c0.6-0.6,0.9-1.3,0.9-2.1V63H597.8z M597.8,68.7v4.1h-0.6v-0.9c0-0.8-0.3-1.5-0.9-2.1
			c-0.6-0.6-1.3-0.9-2.1-0.9v-0.1H597.8z M600.5,47.6v4.2h-0.6v-0.9c0-0.8-0.3-1.5-0.9-2.1c-0.6-0.6-1.3-0.9-2.1-0.9v-0.2H600.5z"/>
		<path class="st0" d="M613.6,84.8c-0.5,1.2-0.4,2.2,0.2,2.9c0.6,0.7,1.2,1,2,1h0.5v0.6h-11.8v-0.6h0.5c0.9,0,1.8-0.3,2.7-0.9
			s1.7-1.6,2.4-3H613.6z M625.6,51.2l0.4,4.3l-14.2,33.6h-3.9l14.7-31.5c0.5-1,0.8-1.8,1.1-2.6c0.3-0.7,0.6-1.4,0.8-2.1
			s0.4-1.3,0.4-1.7H625.6z M632.9,74.9v1.9h-16.4v-1.9H632.9z M625.6,51.2l17,37.7h-4.9l-13.2-32.2L625.6,51.2z M636.1,84.8h4.7
			c0.6,1.4,1.4,2.4,2.3,3c0.9,0.6,1.8,0.9,2.6,0.9h0.5v0.6h-12.7v-0.6h0.5c0.7,0,1.3-0.3,1.9-1C636.5,87,636.5,86,636.1,84.8z"/>
		<path class="st0" d="M653.8,56h-0.1c0-1-0.4-1.7-1.1-2.4c-0.7-0.6-1.5-0.9-2.5-0.9h-0.9v-0.6h5.3L653.8,56z M653.8,85.3l0.7,4
			h-5.3v-0.6h0.9c1,0,1.8-0.3,2.5-1c0.7-0.7,1-1.4,1.1-2.4H653.8z M657.6,52.1v37.2h-4V52.1H657.6z M657.4,85.3h0.2
			c0,0.9,0.4,1.7,1.1,2.4c0.7,0.7,1.5,1,2.5,1h0.8l0.1,0.6h-5.3L657.4,85.3z M664.9,52.1c1.9,0,3.7,0.2,5.2,0.7s2.9,1.1,4,2
			c1.1,0.9,1.9,1.9,2.5,3.2c0.6,1.2,0.9,2.6,0.9,4.2c0,1.7-0.4,3.3-1.2,4.8c-0.8,1.5-2,2.7-3.4,3.7c-1.5,1-3.1,1.5-5,1.7
			c0.7,0.3,1.5,0.9,2.4,1.9s1.7,2,2.4,2.9c1.1,1.4,2,2.7,2.9,3.8c0.8,1.1,1.7,2.1,2.5,3c0.9,1,1.7,1.8,2.4,2.5
			c0.7,0.7,1.5,1.2,2.4,1.6c0.8,0.4,1.8,0.6,2.9,0.6v0.6h-1.9c-2.3,0-4.1-0.3-5.6-0.9c-1.5-0.6-2.7-1.3-3.6-2.1
			c-0.9-0.8-1.7-1.7-2.4-2.4c-0.2-0.2-0.5-0.7-1.1-1.6c-0.6-0.8-1.3-1.8-2-2.8c-0.7-1-1.3-1.9-1.9-2.7c-0.6-0.8-0.9-1.3-1.1-1.5
			c-0.8-1.1-1.8-2-2.9-2.9c-1.1-0.8-2.2-1.3-3.4-1.3v-0.6c1.3,0,2.5,0,3.5,0c1.2,0,2.3-0.1,3.5-0.3c1.2-0.1,2.2-0.6,3.3-1.3
			c1-0.7,1.8-2,2.4-3.7c0.2-0.5,0.3-1,0.4-1.6c0.1-0.6,0.1-1.3,0.1-1.9c0-1.2-0.3-2.2-0.7-3.1c-0.4-0.9-1-1.7-1.7-2.4
			c-0.7-0.7-1.6-1.2-2.6-1.5s-2.1-0.6-3.3-0.6c-1.9-0.1-3.6-0.1-5.1-0.1c-1.4,0-2.2,0-2.2,0c0,0-0.1-0.2-0.2-0.5
			c-0.1-0.3-0.3-0.8-0.5-1.4H664.9z"/>
		<path class="st0" d="M691.7,85.2v4.2h-6.4v-0.6h0.9c1.1,0,2-0.3,2.8-0.9s1.3-1.5,1.4-2.6H691.7z M695.2,51.2h0.6l1.2,3.7
			l-3.8,34.4h-3.4L695.2,51.2z M693.6,86.1c0,0.6,0.1,1.2,0.4,1.8c0.3,0.6,1,0.9,1.9,0.9h0.9v0.6h-3.5v-3.2H693.6z M695.9,51.2
			l16.9,32.4l-1.4,6.5l-16.6-32.1L695.9,51.2z M728,51.2l0.6,4l-14.5,28.6c-0.6,1.4-1.1,2.6-1.4,3.6c-0.3,1-0.6,1.9-0.7,2.8h-0.6
			l-0.9-3.9L728,51.2z M728.6,51.2l5.6,38.1h-4.7l-4-31.2l2.6-6.9H728.6z M729,86.1h0.4v3.2h-3.6v-0.6h0.9c1,0,1.6-0.4,1.9-0.9
			C729,87.2,729.1,86.7,729,86.1z M732.3,85.2h1.2c0.2,1.1,0.7,2,1.5,2.6c0.8,0.6,1.8,0.9,2.8,0.9h0.9v0.6h-6.4V85.2z"/>
	</g>
</g>
</svg>
